HIERARCHY
ROOT reference
{
  OFFSET 0 0 0
  CHANNELS 6 Xposition Yposition Zposition Zrotation Xrotation Yrotation
  JOINT Hips
  {
    OFFSET 1.29631 81.4501 25.6447
    CHANNELS 6 Xposition Yposition Zposition Zrotation Xrotation Yrotation
    JOINT Spine
    {
      OFFSET 0 7.59534 0
      CHANNELS 6 Xposition Yposition Zposition Zrotation Xrotation Yrotation
      JOINT Spine1
      {
        OFFSET 0 23.5015 0
        CHANNELS 6 Xposition Yposition Zposition Zrotation Xrotation Yrotation
        JOINT Neck
        {
          OFFSET 0 23.405 2.12773
          CHANNELS 6 Xposition Yposition Zposition Zrotation Xrotation Yrotation
          JOINT Head
          {
            OFFSET 0 12.9677 -1.85252
            CHANNELS 6 Xposition Yposition Zposition Zrotation Xrotation Yrotation
            End Site
            {
              OFFSET 0 23.1565 0
            }
          }
        }
        JOINT LeftShoulder
        {
          OFFSET 3.62206 22.4732 -0.132728
          CHANNELS 6 Xposition Yposition Zposition Zrotation Xrotation Yrotation
          JOINT LeftArm
          {
            OFFSET 8.17784 0 0
            CHANNELS 6 Xposition Yposition Zposition Zrotation Xrotation Yrotation
            JOINT LeftForeArm
            {
              OFFSET 30.104 0 0
              CHANNELS 6 Xposition Yposition Zposition Zrotation Xrotation Yrotation
              JOINT LeftHand
              {
                OFFSET 24.4664 0 0
                CHANNELS 6 Xposition Yposition Zposition Zrotation Xrotation Yrotation
                End Site
                {
                  OFFSET 13.8939 0 0
                }
              }
            }
          }
        }
        JOINT RightShoulder
        {
          OFFSET -3.6336 22.4732 -0.132728
          CHANNELS 6 Xposition Yposition Zposition Zrotation Xrotation Yrotation
          JOINT RightArm
          {
            OFFSET -8.17784 0 0
            CHANNELS 6 Xposition Yposition Zposition Zrotation Xrotation Yrotation
            JOINT RightForeArm
            {
              OFFSET -30.104 0 0
              CHANNELS 6 Xposition Yposition Zposition Zrotation Xrotation Yrotation
              JOINT RightHand
              {
                OFFSET -24.4664 0 0
                CHANNELS 6 Xposition Yposition Zposition Zrotation Xrotation Yrotation
                End Site
                {
                  OFFSET -13.8939 0 0
                }
              }
            }
          }
        }
      }
    }
    JOINT LeftUpLeg
    {
      OFFSET 9.26261 0 0
      CHANNELS 6 Xposition Yposition Zposition Zrotation Xrotation Yrotation
      JOINT LeftLeg
      {
        OFFSET 0 -35.4897 0
        CHANNELS 6 Xposition Yposition Zposition Zrotation Xrotation Yrotation
        JOINT LeftFoot
        {
          OFFSET 0 -38.2023 0
          CHANNELS 6 Xposition Yposition Zposition Zrotation Xrotation Yrotation
          JOINT LeftToeBase
          {
            OFFSET 0 -6.0207 13.8939
            CHANNELS 6 Xposition Yposition Zposition Zrotation Xrotation Yrotation
            End Site
            {
              OFFSET 0 0 3.70504
            }
          }
        }
      }
    }
    JOINT RightUpLeg
    {
      OFFSET -9.26261 0 0
      CHANNELS 6 Xposition Yposition Zposition Zrotation Xrotation Yrotation
      JOINT RightLeg
      {
        OFFSET 0 -35.4897 0
        CHANNELS 6 Xposition Yposition Zposition Zrotation Xrotation Yrotation
        JOINT RightFoot
        {
          OFFSET 0 -38.2023 0
          CHANNELS 6 Xposition Yposition Zposition Zrotation Xrotation Yrotation
          JOINT RightToeBase
          {
            OFFSET 0 -6.0207 13.8939
            CHANNELS 6 Xposition Yposition Zposition Zrotation Xrotation Yrotation
            End Site
            {
              OFFSET 0 0 3.70504
            }
          }
        }
      }
    }
  }
}
MOTION
Frames:	9
Frame Time:	0.004
0 0 0 0 0 -0 1.04556 75.6841 -114.06 -2.67511 -6.95945 -18.868 0 7.59534 -1.42109e-014 -1.42463 -5.28104 -6.65342 0 23.5015 1.42109e-014 6.27342 8.78344 -7.06995 0 23.405 2.12773 -5.44457 38.1321 0.020326 7.10543e-015 12.9677 -1.85252 -7.89368 3.56202 -2.07565 3.62206 22.4732 -0.132728 -17.091 16.6641 7.01612 8.17784 0 0 -40.7611 74.0468 -14.299 30.104 -1.42109e-014 0 6.48812 -30.679 -31.1972 24.4664 0 0 -22.3042 -27.07 -11.6678 -3.6336 22.4732 -0.132728 8.49325 32.9312 19.9156 -8.17784 -1.42109e-014 2.84217e-014 35.2172 35.0869 13.5642 -30.104 -7.10543e-015 0 -16.5689 -16.9296 42.5026 -24.4664 -7.10543e-015 -1.42109e-014 0.406162 -10.6226 0.439478 9.26261 0 0 -5.35713 27.7984 10.4027 1.77636e-015 -35.4897 0 -5.53967 2.61515 4.5289 1.77636e-015 -38.2023 0 -2.68373 -13.5404 22.5728 0 -6.0207 13.8939 0 0 -0 -9.26261 1.42109e-014 0 -4.11124 -26.4657 -1.48475 0 -35.4897 1.42109e-014 3.23761 33.5466 -9.77156 7.10543e-015 -38.2023 0 -2.82417 8.54706 18.7669 0 -6.0207 13.8939 1.98785e-016 -1.59028e-015 -0 
0 0 0 0 0 -0 0.997805 75.6589 -113.802 -2.55219 -6.92567 -18.6746 0 7.59534 -1.42109e-014 -1.42474 -5.42212 -6.73278 0 23.5015 0 6.22234 8.94383 -7.15239 0 23.405 2.12773 -5.38156 38.0653 0.047056 7.10543e-015 12.9677 -1.85252 -8.15557 3.48201 -2.06514 3.62206 22.4732 -0.132728 -17.0654 16.7207 7.07959 8.17784 0 -2.84217e-014 -40.5822 73.9182 -14.5162 30.104 -1.42109e-014 0 6.47328 -30.6526 -31.2795 24.4664 0 0 -22.2304 -27.0528 -11.6457 -3.6336 22.4732 -0.132728 8.41166 32.8136 20.053 -8.17784 0 0 35.3259 35.1656 13.547 -30.104 0 0 -16.5738 -17.0519 42.4736 -24.4664 0 0 0.245837 -10.752 0.296612 9.26261 0 0 -5.36014 27.8428 10.3039 0 -35.4897 0 -5.54238 2.72758 4.68627 -1.77636e-015 -38.2023 0 -2.95688 -13.4816 22.281 0 -6.0207 13.8939 -0 -1.59028e-015 -0 -9.26261 1.42109e-014 0 -4.16067 -26.4053 -1.61004 0 -35.4897 -7.10543e-015 3.0683 33.8868 -9.10152 0 -38.2023 0 -2.84632 7.77089 18.161 0 -6.0207 13.8939 -0 -3.18055e-015 -0 
0 0 0 0 0 -0 0.93176 75.6335 -113.515 -2.45622 -6.90598 -18.4891 0 7.59534 0 -1.40078 -5.48257 -6.76922 0 23.5015 0 6.19986 8.96917 -7.18883 -7.10543e-015 23.405 2.12773 -5.43726 38.0874 0.059396 7.10543e-015 12.9677 -1.85252 -8.23731 3.35302 -2.08438 3.62206 22.4732 -0.132728 -17.075 16.6587 7.1166 8.17784 0 0 -40.8155 73.9488 -14.2459 30.104 0 0 6.47511 -30.5881 -31.3068 24.4664 -1.42109e-014 -3.55271e-015 -22.266 -26.9657 -11.7305 -3.6336 22.4732 -0.132728 8.3717 32.7123 20.0769 -8.17784 1.42109e-014 0 35.4277 35.1344 13.4913 -30.104 -7.10543e-015 0 -16.3311 -17.0204 42.5925 -24.4664 7.10543e-015 -7.10543e-015 0.028654 -10.7957 0.261957 9.26261 1.42109e-014 0 -5.32164 27.9377 10.263 3.55271e-015 -35.4897 0 -5.56843 2.86211 4.59166 -8.88178e-016 -38.2023 2.84217e-014 -3.20092 -13.435 22.168 -7.10543e-015 -6.0207 13.8939 2.38542e-015 -1.59028e-015 -0 -9.26261 0 0 -4.15679 -26.2987 -1.74547 0 -35.4897 0 2.83099 34.209 -8.47201 -7.10543e-015 -38.2023 0 -2.51586 7.05728 17.3131 7.10543e-015 -6.0207 13.8939 -0 0 1.59028e-015 
0 0 0 0 0 -0 0.875909 75.6076 -113.256 -2.34235 -6.862 -18.295 0 7.59534 -1.42109e-014 -1.42764 -5.53234 -6.7778 -7.10543e-015 23.5015 1.42109e-014 6.23763 8.95162 -7.19752 0 23.405 2.12773 -5.38156 38.0807 0.014489 7.10543e-015 12.9677 -1.85252 -8.38366 3.31379 -2.13793 3.62206 22.4732 -0.132728 -17.0909 16.7405 7.07119 8.17784 1.42109e-014 0 -40.7577 73.9208 -14.289 30.104 0 0 6.27972 -30.6383 -31.463 24.4664 -1.42109e-014 0 -21.8071 -27.1193 -11.6299 -3.6336 22.4732 -0.132728 8.43034 32.8038 19.9728 -8.17784 -1.42109e-014 0 35.2875 35.2389 13.5782 -30.104 0 0 -16.3846 -17.172 42.5687 -24.4664 7.10543e-015 1.42109e-014 0.035881 -10.9343 0.252748 9.26261 1.42109e-014 0 -5.28789 27.9759 10.176 0 -35.4897 0 -5.5897 2.99748 4.50236 0 -38.2023 0 -3.41292 -13.3905 22.0882 7.10543e-015 -6.0207 13.8939 7.95139e-016 1.59028e-015 -0 -9.26261 0 -1.42109e-014 -4.1469 -26.2582 -1.82855 0 -35.4897 7.10543e-015 2.58205 34.4878 -8.14453 7.10543e-015 -38.2023 1.42109e-014 -2.19983 6.56108 16.688 0 -6.0207 13.8939 8.82781e-032 -3.18055e-015 1.59028e-015 
0 0 0 0 0 -0 0.779183 75.5881 -112.961 -2.25117 -6.77827 -18.0073 0 7.59534 0 -1.44848 -5.69618 -6.85119 -7.10543e-015 23.5015 -1.42109e-014 6.27783 9.0116 -7.27427 -7.10543e-015 23.405 2.12773 -5.28364 38.1978 -0.004736 0 12.9677 -1.85252 -8.64244 3.06018 -2.19171 3.62206 22.4732 -0.132728 -17.0997 16.685 7.11201 8.17784 -1.42109e-014 0 -40.9421 73.965 -14.0737 30.104 1.42109e-014 7.10543e-015 6.33733 -30.6106 -31.4795 24.4664 0 0 -22.0393 -27.0686 -11.5433 -3.6336 22.4732 -0.132728 8.45529 32.7819 19.9521 -8.17784 -1.42109e-014 0 35.3324 35.0513 13.513 -30.104 0 0 -16.1407 -17.088 42.7502 -24.4664 0 7.10543e-015 -0.045236 -10.9144 0.201305 9.26261 0 0 -5.10766 27.9839 10.2865 1.77636e-015 -35.4897 0 -5.64096 3.23992 4.06436 -8.88178e-016 -38.2023 0 -3.68757 -13.3924 22.0326 0 -6.0207 13.8939 7.95139e-016 1.59028e-015 3.18055e-015 -9.26261 0 0 -4.17017 -26.1184 -1.79489 -7.10543e-015 -35.4897 1.42109e-014 2.56712 34.6384 -7.62512 -7.10543e-015 -38.2023 -1.42109e-014 -1.90496 6.00959 15.5196 0 -6.0207 13.8939 -0 -1.59028e-015 -0 
0 0 0 0 0 -0 0.691694 75.5715 -112.671 -2.18188 -6.73922 -17.7574 0 7.59534 0 -1.46974 -5.80809 -6.90964 -7.10543e-015 23.5015 0 6.36407 9.0734 -7.34051 7.10543e-015 23.405 2.12773 -5.40191 38.0893 0.002437 -7.10543e-015 12.9677 -1.85252 -8.68904 3.16003 -2.20209 3.62206 22.4732 -0.132728 -17.1554 16.7914 7.13665 8.17784 0 0 -40.8047 73.8592 -14.2112 30.104 1.42109e-014 -1.42109e-014 6.27348 -30.6426 -31.5769 24.4664 0 0 -21.9698 -27.1313 -11.4736 -3.6336 22.4732 -0.132728 8.34002 32.7603 20.0045 -8.17784 0 0 35.3916 35.0639 13.5096 -30.104 0 0 -15.9496 -17.2227 42.8094 -24.4664 0 7.10543e-015 -0.187063 -11.1187 0.157843 9.26261 -1.42109e-014 1.42109e-014 -4.97376 28.0611 10.3279 -3.55271e-015 -35.4897 2.84217e-014 -5.66002 3.40636 3.83034 -8.88178e-016 -38.2023 0 -3.93765 -13.3258 21.897 -7.10543e-015 -6.0207 13.8939 7.95139e-016 -3.18055e-015 3.18055e-015 -9.26261 -1.42109e-014 1.42109e-014 -4.13596 -25.9359 -1.79455 0 -35.4897 0 2.4191 34.6938 -7.48282 0 -38.2023 0 -1.63759 5.61568 14.8956 0 -6.0207 13.8939 -3.97569e-016 0 -1.59028e-015 
0 0 0 0 0 -0 0.622671 75.5452 -112.39 -2.05382 -6.69783 -17.5328 0 7.59534 -1.42109e-014 -1.51277 -5.85457 -6.9194 7.10543e-015 23.5015 0 6.41552 9.01597 -7.34832 -7.10543e-015 23.405 2.12773 -5.37301 38.1146 -0.056864 -7.10543e-015 12.9677 -1.85252 -8.83327 3.11705 -2.27895 3.62206 22.4732 -0.132728 -17.1791 16.7911 7.07938 8.17784 0 0 -41.0197 73.9901 -13.9709 30.104 0 1.42109e-014 6.33904 -30.6995 -31.5361 24.4664 0 0 -22.0201 -27.1536 -11.5738 -3.6336 22.4732 -0.132728 8.36489 32.8915 19.9206 -8.17784 0 0 35.3109 35.1115 13.595 -30.104 7.10543e-015 0 -16.0447 -17.2893 42.7864 -24.4664 0 0 -0.186655 -11.1531 0.005381 9.26261 0 -1.42109e-014 -4.9319 28.0953 10.2734 0 -35.4897 0 -5.66192 3.57699 3.73921 -8.88178e-016 -38.2023 0 -4.21527 -13.2768 21.7501 0 -6.0207 13.8939 -7.95139e-016 -1.59028e-015 3.18055e-015 -9.26261 0 -1.42109e-014 -4.15786 -25.8197 -1.81221 -7.10543e-015 -35.4897 -1.42109e-014 2.2196 34.7606 -7.35357 0 -38.2023 0 -1.43674 5.2954 14.4372 0 -6.0207 13.8939 -3.97569e-016 -1.59028e-015 3.18055e-015 
0 0 0 0 0 -0 0.576206 75.5234 -112.149 -1.92984 -6.56266 -17.3689 0 7.59534 -1.42109e-014 -1.462 -5.93435 -6.91032 0 23.5015 0 6.40105 8.93513 -7.33514 -7.10543e-015 23.405 2.12773 -5.451 38.1491 -0.039629 7.10543e-015 12.9677 -1.85252 -8.88237 2.95845 -2.29827 3.62206 22.4732 -0.132728 -17.212 16.7949 7.13665 8.17784 -1.42109e-014 0 -40.9552 73.9982 -14.0117 30.104 0 0 6.25418 -30.6924 -31.5863 24.4664 1.42109e-014 -3.55271e-015 -21.83 -27.192 -11.5206 -3.6336 22.4732 -0.132728 8.3332 32.8013 19.9343 -8.17784 1.42109e-014 0 35.3963 35.0491 13.4964 -30.104 0 0 -15.8892 -17.1242 42.9115 -24.4664 0 1.42109e-014 -0.144505 -11.0249 0.029948 9.26261 0 0 -4.91181 28.0145 10.1887 1.77636e-015 -35.4897 0 -5.63822 3.72039 3.85901 1.77636e-015 -38.2023 2.84217e-014 -4.4699 -13.2284 21.4797 0 -6.0207 13.8939 7.95139e-016 4.77083e-015 -0 -9.26261 0 -1.42109e-014 -4.15125 -25.8591 -1.75056 7.10543e-015 -35.4897 0 2.06755 34.8391 -7.42456 0 -38.2023 0 -1.58925 4.95143 14.3146 0 -6.0207 13.8939 3.97569e-016 1.59028e-015 -0 
0 0 0 0 0 -0 0.498511 75.4985 -111.866 -1.86949 -6.5343 -17.1612 0 7.59534 0 -1.43005 -5.95196 -6.91157 0 23.5015 1.42109e-014 6.40382 8.88285 -7.33509 0 23.405 2.12773 -5.32923 38.1566 -0.133254 0 12.9677 -1.85252 -9.10406 2.93296 -2.39728 3.62206 22.4732 -0.132728 -17.2071 16.8268 7.11466 8.17784 0 0 -41.1247 73.9354 -13.8446 30.104 0 0 6.16473 -30.6533 -31.6164 24.4664 0 0 -21.6893 -27.1842 -11.5292 -3.6336 22.4732 -0.132728 8.33287 32.8211 19.8799 -8.17784 1.42109e-014 0 35.3597 35.2033 13.5255 -30.104 0 0 -15.8485 -17.16 42.9124 -24.4664 0 0 -0.294496 -11.0773 -0.076268 9.26261 0 -1.42109e-014 -4.80577 28.1058 10.1102 1.77636e-015 -35.4897 0 -5.64615 3.85619 3.80135 8.88178e-016 -38.2023 2.84217e-014 -4.72208 -13.1823 21.3256 0 -6.0207 13.8939 7.95139e-016 -1.59028e-015 -3.18055e-015 -9.26261 0 1.42109e-014 -4.13731 -25.673 -1.61578 -7.10543e-015 -35.4897 1.42109e-014 2.00883 34.835 -7.56479 7.10543e-015 -38.2023 0 -1.45439 4.58142 14.1963 0 -6.0207 13.8939 1.98785e-016 -4.77083e-015 1.59028e-015 
